<?xml version="1.0" encoding="UTF-8" standalone="no"?>
<!-- Created with Inkscape (http://www.inkscape.org/) -->

<svg
   xmlns:dc="http://purl.org/dc/elements/1.1/"
   xmlns:cc="http://creativecommons.org/ns#"
   xmlns:rdf="http://www.w3.org/1999/02/22-rdf-syntax-ns#"
   xmlns:svg="http://www.w3.org/2000/svg"
   xmlns="http://www.w3.org/2000/svg"
   xmlns:sodipodi="http://sodipodi.sourceforge.net/DTD/sodipodi-0.dtd"
   xmlns:inkscape="http://www.inkscape.org/namespaces/inkscape"
   width="744.09448819"
   height="1052.3622047"
   id="svg2"
   version="1.1"
   inkscape:version="0.48.2 r9819"
   sodipodi:docname="New document 1">
  <defs
     id="defs4" />
  <sodipodi:namedview
     id="base"
     pagecolor="#ffffff"
     bordercolor="#666666"
     borderopacity="1.0"
     inkscape:pageopacity="0.0"
     inkscape:pageshadow="2"
     inkscape:zoom="0.35"
     inkscape:cx="250.00173"
     inkscape:cy="473.95006"
     inkscape:document-units="px"
     inkscape:current-layer="layer1"
     showgrid="false"
     inkscape:window-width="987"
     inkscape:window-height="666"
     inkscape:window-x="0"
     inkscape:window-y="0"
     inkscape:window-maximized="0" />
  <metadata
     id="metadata7">
    <rdf:RDF>
      <cc:Work
         rdf:about="">
        <dc:format>image/svg+xml</dc:format>
        <dc:type
           rdf:resource="http://purl.org/dc/dcmitype/StillImage" />
        <dc:title></dc:title>
      </cc:Work>
    </rdf:RDF>
  </metadata>
  <g
     inkscape:label="Layer 1"
     inkscape:groupmode="layer"
     id="layer1">
    <g
       id="g2996"
       transform="translate(-1515.7143,294.28572)"
       inkscape:export-filename="/Users/krtonga/bash/code/projects/world_sketch/world_sketch/public/images/pointer.png"
       inkscape:export-xdpi="200"
       inkscape:export-ydpi="200">
      <path
         style="fill:#101010"
         d="m 1744.1863,555.11458 -0.2577,-61.2524 -20.2388,-0.27067 -20.2388,-0.27067 -0.2612,-40.72933 -0.2612,-40.72933 -20,-0.5 -20,-0.5 -0.5,-40.5 -0.5,-40.5 -20,-0.5 -20,-0.5 -0.5,-40.5 -0.5,-40.5 -20,-0.5 -20,-0.5 -0.5,-20 -0.5,-20 -20,-0.5 -20,-0.5 0,-61 0,-61.000001 61,0 61,0 0.5,20.000001 0.5,20 20,0 20,0 0.1079,-183.615621 c 0.059,-100.988589 0.4234,-184.126099 0.809,-184.749999 0.4839,-0.7829 6.7248,-1.13438 20.1421,-1.13438 l 19.441,0 c 0,-10.89461 0,-21.78923 0,-32.68384 27.766,-0.38474 47.2861,-0.58697 84.4221,-0.47628 0.6496,23.11508 -1.7537,20.44202 -0.2933,33.11827 l 19.5776,0.27092 c 16.9954,0.2352 19.716,0.49068 20.6276,1.93711 -0.6116,55.49302 0.054,106.62761 0.166,162.333819 l 40.5,0.5 40.5,0.5 0.2707,20.24232 0.2706,20.24232 61.2294,0.25768 61.2293,0.25768 0,20 0,19.99999957 -40.5,0.50000003 -40.5,0.5 -0.5,61.0000004 -0.5,61.000001 -20,0 -20,0 -0.2559,-81.761211 -0.2558,-81.76121 -40.7442,0.26121 -40.7441,0.26121 -0.5,81.5 -0.5,81.500001 -19.7733,0.27122 c -15.2888,0.20971 -19.8748,-0.0171 -20.221,-1 -0.2464,-0.69917 -0.5734,-83.246331 -0.7268,-183.438141 -0.1534,-100.191799 -0.654,-182.541799 -1.1124,-182.999999 -1.0326,-1.0322 -78.3834,-0.9495 -79.4181,0.0849 -0.4116,0.41155 -0.8869,101.73586 -1.056,225.165139 l -0.3077,224.416871 -20.4423,0 -20.4424,0 0,-19.3 c 0,-13.67778 -0.3496,-19.64957 -1.2,-20.5 -0.8504,-0.85034 -6.8176,-1.2 -20.4793,-1.2 l -19.2793,0 -0.2707,-20.25 -0.2707,-20.25 -39.3834,-0.26173 c -28.2399,-0.18767 -39.7701,0.0592 -40.75,0.87245 -1.8754,1.55639 -2.0348,77.8211 -0.1666,79.68928 0.8503,0.85034 6.8176,1.2 20.4793,1.2 l 19.2793,0 0.2707,20.25 0.2707,20.25 20.25,0.27071 20.25,0.2707 0,39.7793 c 0,29.60611 0.3069,40.08618 1.2,40.97929 0.8504,0.85043 6.8222,1.2 20.5,1.2 l 19.3,0 0,39.8 c 0,29.62222 0.3068,40.10687 1.2,41 0.8504,0.85043 6.8222,1.2 20.5,1.2 l 19.3,0 0,39.8 c 0,29.62222 0.3068,40.10687 1.2,41 0.8504,0.85043 6.8222,1.2 20.5,1.2 l 19.3,0 0,39.87756 c 0,32.3461 0.2561,40.09011 1.3561,41.00302 0.9953,0.82607 44.5558,1.05815 163.75,0.87244 l 162.3939,-0.25302 0.5,-40.5 0.5,-40.5 20.2423,-0.27068 20.2423,-0.27068 0.2577,-61.22932 0.2577,-61.22932 20.2466,-0.27069 20.2466,-0.2707 0.2534,-143.2293 0.2534,-143.229311 20,0 20,0 0,143.000001 0,143 -20.2423,0.27068 -20.2424,0.27068 -0.2576,61.22932 -0.2577,61.22932 -20.2423,0.27068 -20.2424,0.27068 -0.2576,61.22932 -0.2577,61.22932 -204.7423,0.2524 -204.7424,0.2524 z M 2072.897,164.1334 c -0.2668,-0.69917 -0.3689,-37.49622 -0.2268,-81.771221 l 0.2584,-80.5000004 40.5,0 40.5,0 0,20.0000004 0,20 -20,0.5 -20,0.5 -0.5,61.000001 -0.5,61 -19.7733,0.27122 c -15.2738,0.2095 -19.8836,-0.0181 -20.2583,-1 z m 81.9855,-82.030801 c -0.2748,-0.7161 -0.3769,-9.83815 -0.2268,-20.27121 l 0.2729,-18.96921 20,0 20,0 0,20 0,20 -19.7733,0.27122 c -15.5133,0.21278 -19.8808,-0.009 -20.2728,-1.0308 z"
         id="path2998"
         inkscape:connector-curvature="0"
         sodipodi:nodetypes="ccccccccccccccccccccccccccccscsccccsccccccccccccccccccccccscsccscccscscccsccscccccssscscscscscscsccccccccccccccccccccccccccsscccccccccsscscccccsc" />
    </g>
  </g>
</svg>
