<?xml version="1.0" encoding="UTF-8" standalone="no"?>
<!-- Created with Inkscape (http://www.inkscape.org/) -->

<svg
   xmlns:dc="http://purl.org/dc/elements/1.1/"
   xmlns:cc="http://creativecommons.org/ns#"
   xmlns:rdf="http://www.w3.org/1999/02/22-rdf-syntax-ns#"
   xmlns:svg="http://www.w3.org/2000/svg"
   xmlns="http://www.w3.org/2000/svg"
   xmlns:sodipodi="http://sodipodi.sourceforge.net/DTD/sodipodi-0.dtd"
   xmlns:inkscape="http://www.inkscape.org/namespaces/inkscape"
   width="64px"
   height="64px"
   id="svg3023"
   version="1.1"
   inkscape:version="0.48.2 r9819"
   sodipodi:docname="New document 4">
  <defs
     id="defs3025" />
  <sodipodi:namedview
     id="base"
     pagecolor="#ffffff"
     bordercolor="#666666"
     borderopacity="1.0"
     inkscape:pageopacity="0.0"
     inkscape:pageshadow="2"
     inkscape:zoom="1.9445436"
     inkscape:cx="32"
     inkscape:cy="86.046426"
     inkscape:current-layer="layer1"
     showgrid="true"
     inkscape:document-units="px"
     inkscape:grid-bbox="true"
     inkscape:window-width="722"
     inkscape:window-height="560"
     inkscape:window-x="80"
     inkscape:window-y="13"
     inkscape:window-maximized="0" />
  <metadata
     id="metadata3028">
    <rdf:RDF>
      <cc:Work
         rdf:about="">
        <dc:format>image/svg+xml</dc:format>
        <dc:type
           rdf:resource="http://purl.org/dc/dcmitype/StillImage" />
        <dc:title></dc:title>
      </cc:Work>
    </rdf:RDF>
  </metadata>
  <g
     id="layer1"
     inkscape:label="Layer 1"
     inkscape:groupmode="layer">
    <path
       style="fill:#000000"
       d="m 25.837117,57.524459 c 0,-4.673008 0.03276,-4.866862 0.822723,-4.866862 0.794208,0 0.818832,0.16494 0.71039,4.758416 -0.09995,4.233612 -0.190685,4.770377 -0.822724,4.866863 -0.651171,0.09941 -0.710389,-0.297246 -0.710389,-4.758417 z m 11.961555,4.423491 c -0.117745,-0.244064 -0.162861,-2.397915 -0.100254,-4.786333 0.107395,-4.097147 0.159716,-4.342581 0.925702,-4.342581 0.774511,0 0.811873,0.215254 0.811873,4.677327 0,4.200965 -0.07248,4.688428 -0.711615,4.786332 -0.391392,0.05996 -0.807956,-0.09068 -0.925706,-0.334745 z M 16.602059,60.49766 c -0.343966,-0.09814 -0.50742,-0.916179 -0.50742,-2.539462 0,-2.179434 0.07297,-2.394688 0.811873,-2.394688 0.739133,0 0.811873,0.215254 0.811873,2.402538 0,2.408957 -0.172791,2.800816 -1.116326,2.531612 z m 30.586418,-0.0056 c -0.133463,-0.106156 -0.242657,-1.258509 -0.242657,-2.56079 0,-2.152527 0.07381,-2.36778 0.811873,-2.36778 0.738663,0 0.811873,0.215253 0.811873,2.38705 0,1.750002 -0.151909,2.433417 -0.569216,2.560787 -0.31307,0.09556 -0.678414,0.08688 -0.811873,-0.01927 z M 29.333871,53.706954 c 0.145602,-0.488354 0.505103,-1.360129 0.798896,-1.937275 l 0.534164,-1.049358 -3.429751,0 -3.429746,0 0,-1.272461 c 0,-0.699853 -0.137004,-1.33343 -0.304452,-1.407947 -0.685058,-0.304856 -3.348977,0.185947 -3.348977,0.61702 0,0.261428 -0.416142,0.448992 -0.996168,0.448992 l -0.996165,0 0.992202,1.695116 c 0.545709,0.932314 0.993985,2.022032 0.996165,2.421595 0.0037,0.693935 -0.143531,0.726478 -3.288704,0.726478 l -3.292669,0 0.277908,-1.210797 c 0.152851,-0.665939 0.629859,-1.691313 1.060022,-2.278611 0.986755,-1.347223 0.985631,-1.353781 -0.232735,-1.353781 -0.856977,0 -1.014842,-0.150678 -1.014842,-0.968637 0,-0.532752 -0.205014,-0.968637 -0.455591,-0.968637 -0.327063,0 -0.365286,-0.842551 -0.135481,-2.986634 0.176058,-1.642648 0.35105,-7.882942 0.388867,-13.867321 l 0.06876,-10.880688 1.386018,-2.184365 c 0.762308,-1.201399 1.609709,-2.236766 1.883106,-2.300809 0.77864,-0.182398 2.866628,2.728229 3.396497,4.734672 0.328062,1.242268 0.400882,3.729439 0.23043,7.87023 -0.137069,3.329692 -0.104857,6.053986 0.07157,6.053986 0.176431,0 0.833412,-0.425587 1.459954,-0.945749 l 1.139168,-0.945752 -0.296995,-7.083935 C 22.581536,19.533022 22.63831,16.880669 22.99797,15.165179 23.945438,10.645948 26.363489,6.666156 30.233116,3.2570742 l 2.015741,-1.7758355 1.707276,1.4529563 c 3.425399,2.9151348 5.56015,5.9445976 6.982783,9.909382 0.840978,2.343745 0.897494,3.079632 0.801814,10.440565 l -0.102933,7.919102 1.233231,0.939769 1.233235,0.939766 0,-6.297951 c 0,-4.640714 0.159237,-6.72445 0.605151,-7.918768 0.719043,-1.925875 2.237615,-3.823894 3.05943,-3.823894 0.323243,0 1.212813,0.976622 1.976818,2.170271 l 1.389107,2.170271 -0.08631,9.776594 c -0.07537,8.537541 2.64e-4,9.940228 0.596767,11.067773 0.37569,0.710154 0.77378,2.530844 0.88465,4.045978 0.199485,2.726243 0.190527,2.758793 -0.864528,3.14115 -0.639045,0.231595 -1.066097,0.647808 -1.066097,1.039041 0,0.437427 -0.267757,0.652681 -0.811874,0.652681 -0.98604,0 -0.983743,-0.07759 -0.04897,1.654072 0.4196,0.777306 0.879757,1.812844 1.022578,2.301199 l 0.259665,0.887918 -3.465926,0 -3.465929,0 0.259666,-0.887918 c 0.14282,-0.488355 0.602978,-1.523893 1.022579,-2.301199 0.934774,-1.731669 0.937073,-1.654072 -0.04897,-1.654072 -0.446531,0 -0.811873,-0.200999 -0.811873,-0.446662 0,-0.443274 -1.173421,-0.831981 -2.537104,-0.840448 -0.572139,-0.0035 -0.710389,0.278354 -0.710389,1.44855 l 0,1.452956 -3.429747,0 -3.42975,0 0.534165,1.049358 c 0.293792,0.577146 0.653293,1.448921 0.798894,1.937275 l 0.264728,0.887918 -3.465928,0 -3.465926,0 0.264728,-0.887918 z m 19.312373,-7.620672 c 0.37707,-0.144702 0.79905,-0.673998 0.93773,-1.176214 0.312465,-1.131559 -0.457474,-4.641518 -1.307624,-5.961125 -0.618505,-0.960047 -7.311969,-6.632738 -7.826266,-6.632738 -0.142874,0 -0.483572,1.997815 -0.757113,4.43959 -0.701105,6.258464 -0.921318,7.506942 -1.324116,7.506942 -0.194501,0 -0.35364,-4.629631 -0.35364,-10.288066 0,-5.658436 -0.182895,-11.055141 -0.406432,-11.992675 -0.760234,-3.188494 -3.004077,-5.809753 -4.973247,-5.809753 -0.442686,0 -1.494934,0.548859 -2.338333,1.219693 -2.650416,2.108123 -2.83634,3.131331 -2.83634,15.609574 0,7.371849 -0.140141,10.969128 -0.432943,11.113064 -0.238118,0.117054 -0.488877,0.161953 -0.557242,0.09978 -0.06836,-0.06217 -0.415333,-2.638671 -0.771043,-5.725539 -0.355711,-3.086868 -0.749912,-5.694544 -0.876003,-5.794834 -0.485334,-0.38603 -7.076381,5.242659 -7.880947,6.73025 -0.927326,1.71457 -1.481794,5.42628 -0.910447,6.094669 0.211076,0.246929 1.087821,0.561335 1.948317,0.698682 2.055177,0.328036 29.778052,0.209339 30.665689,-0.131295 z m -6.571663,-2.776071 c 0,-0.59459 0.250618,-0.661871 2.465383,-0.661871 2.128866,0 2.446933,0.07713 2.330194,0.565039 -0.106647,0.445715 -0.627278,0.585487 -2.465388,0.66187 -2.118066,0.08802 -2.330189,0.03658 -2.330189,-0.565038 z M 28.841304,23.869426 c -0.466604,-0.600504 2.468341,-2.531116 3.847845,-2.531116 1.316931,0 3.70232,1.53967 3.70232,2.389698 0,0.671947 -0.754554,0.657556 -1.713459,-0.03267 -0.419397,-0.301892 -1.38372,-0.548894 -2.142939,-0.548894 -0.759219,0 -1.723542,0.247002 -2.142939,0.548894 -0.900059,0.64788 -1.160017,0.677065 -1.550828,0.174097 z"
       id="path3042"
       inkscape:connector-curvature="0" />
  </g>
</svg>
